# xmcd CD database file
#
# Track frame offsets:
#	150
#	31749
#	62824
#	97815
#	121234
#	130139
#	149611
#	176590
#	205649
#
# Disc length: 2956 seconds
#
# Revision: 0
# Processed by: cddbd v1.5.2PL0 Copyright (c) Steve Scherf et al.
# Submitted via: CDex 1.51
#
DISCID=760b8a09
DTITLE=Alex Hutton Trio - Legentis
DYEAR=2010
DGENRE=Jazz
TTITLE0=J J
TTITLE1=The Legentis Script
TTITLE2=Clouds
TTITLE3=Then There Were Four
TTITLE4=Hymn II (We The People)
TTITLE5=Wonder Why
TTITLE6=Farewell 296
TTITLE7=Crying Wolf
TTITLE8=A Norsk Tale
EXTD=YEAR: 2010
EXTT0=
EXTT1=
EXTT2=
EXTT3=
EXTT4=
EXTT5=
EXTT6=
EXTT7=
EXTT8=
PLAYORDER=
